<?xml version="1.0" encoding="utf-8"?>
<!-- Generator: Adobe Illustrator 23.0.6, SVG Export Plug-In . SVG Version: 6.00 Build 0)  -->
<svg version="1.1" id="Capa_1" xmlns="http://www.w3.org/2000/svg" xmlns:xlink="http://www.w3.org/1999/xlink" x="0px" y="0px"
	 viewBox="0 0 137.5 130" style="enable-background:new 0 0 137.5 130;" xml:space="preserve">
<style type="text/css">
	.st0{fill:#FFFFFF;}
</style>
<g>
	<polygon class="st0" points="94.5,54.8 68.7,54.8 43,54.8 43,50.5 43,46.2 68.7,46.2 94.5,46.2 94.5,50.5 	"/>
	<path class="st0" d="M90.2,14c-3.1,0-6.1,0.9-8.6,2.4C79.1,14.9,76.2,14,73,14c-1.5,0-3,0.2-4.4,0.6c-1.4-0.3-2.7-0.6-4.2-0.6
		c-3.1,0-6,0.9-8.5,2.4c-2.5-1.5-5.5-2.4-8.6-2.4c-9.5,0-17.2,7.7-17.2,17.2v8.6h8.6v-8.6c0-4.7,3.8-8.6,8.6-8.6
		c0.8,0,1.5,0.1,2.2,0.3c-1.4,2.5-2.2,5.3-2.2,8.3v8.6h8.6v-8.6c0-4.7,3.8-8.6,8.6-8.6v17.2H73V22.6c4.7,0,8.6,3.8,8.6,8.6v8.6h8.6
		v-8.6c0-3-0.8-5.8-2.2-8.3c0.7-0.2,1.4-0.3,2.2-0.3c4.7,0,8.6,3.8,8.6,8.6v8.6h8.6v-8.6C107.4,21.7,99.7,14,90.2,14z"/>
	<polygon class="st0" points="70.6,4 70.6,0 66.9,0 66.9,4 62.8,4 62.8,7.8 66.9,7.8 66.9,11.8 70.6,11.8 70.6,7.8 74.7,7.8 74.7,4 
			"/>
	<path class="st0" d="M111.7,61.3c0,10.2-3.5,19.5-9.4,26.9c-3.4-15.4-17.1-26.8-33.5-26.8c-10.3,0-19.5,4.5-25.8,11.7V61.3l-43,0
		c0,38,30.8,68.7,68.7,68.7c38,0,68.7-30.8,68.7-68.7H111.7z M9.3,69.8h25.1v25.8h0c0,6.7,2,13,5.3,18.3C23.5,105,12,88.8,9.3,69.8z
		 M68.7,121.4c-14.2,0-25.8-11.5-25.8-25.8s11.5-25.8,25.8-25.8s25.8,11.5,25.8,25.7c-2.9,2.2-6.1,4-9.5,5.4
		c0.6-1.7,0.9-3.5,0.9-5.4c0-9.7-7.7-17.2-17.2-17.2s-17.2,7.7-17.2,17.2s7.7,17.2,17.2,17.2c25.6,0,46.8-18.6,50.9-43l8.7,0
		C124.2,99,99.1,121.4,68.7,121.4z M77.3,95.6c0,4.7-3.8,8.6-8.6,8.6c-4.7,0-8.6-3.8-8.6-8.6c0-4.7,3.8-8.6,8.6-8.6
		C73.5,87,77.3,90.9,77.3,95.6z"/>
</g>
</svg>
